<?xml version="1.0" standalone="no"?>
<!DOCTYPE svg PUBLIC "-//W3C//DTD SVG 20010904//EN"
 "http://www.w3.org/TR/2001/REC-SVG-20010904/DTD/svg10.dtd">
<svg version="1.0" xmlns="http://www.w3.org/2000/svg"
 width="318.000000pt" height="320.000000pt" viewBox="0 0 318.000000 320.000000"
 preserveAspectRatio="xMidYMid meet">

<g transform="translate(0.000000,320.000000) scale(0.100000,-0.100000)"
fill="#000000" stroke="none">
<path d="M1370 3185 c-394 -50 -788 -276 -1026 -590 -238 -313 -346 -638 -343
-1025 1 -130 6 -171 41 -330 59 -275 221 -572 422 -773 126 -126 331 -267 476
-327 30 -13 60 -27 65 -30 6 -4 39 -17 75 -28 239 -77 470 -98 720 -67 277 34
519 134 760 316 270 202 482 526 571 869 74 287 59 655 -39 930 -75 213 -224
451 -376 603 -126 126 -331 267 -476 327 -30 13 -59 27 -65 30 -13 10 -125 45
-205 66 -164 41 -407 53 -600 29z m-598 -1069 c230 -131 455 -369 564 -600
l34 -72 -23 -69 c-85 -248 -233 -388 -412 -388 -98 0 -134 14 -197 81 -177
185 -241 419 -193 698 23 131 118 394 142 394 5 0 43 -20 85 -44z m1805 -87
c72 -176 88 -259 87 -444 -1 -143 -3 -168 -26 -237 -38 -116 -92 -204 -178
-290 -67 -68 -81 -77 -124 -83 -74 -11 -161 0 -221 29 -106 53 -213 198 -265
362 l-23 71 48 91 c120 228 337 447 565 571 41 22 79 39 85 38 5 -2 29 -51 52
-108z"/>
</g>
</svg>
